<?xml version="1.0" standalone="no"?>
<!DOCTYPE svg PUBLIC "-//W3C//DTD SVG 20010904//EN"
 "http://www.w3.org/TR/2001/REC-SVG-20010904/DTD/svg10.dtd">
<svg version="1.0" xmlns="http://www.w3.org/2000/svg"
 width="700.000000pt" height="700.000000pt" viewBox="0 0 700.000000 700.000000"
 preserveAspectRatio="xMidYMid meet">
<metadata>
Created by potrace 1.14, written by Peter Selinger 2001-2017
</metadata>
<g transform="translate(0.000000,700.000000) scale(0.100000,-0.100000)"
fill="#000000" stroke="none">
<path d="M1052 4893 c-5 -10 -8 -143 -8 -296 1 -314 -4 -297 84 -297 94 0 90
-9 91 217 0 164 3 200 15 209 23 16 5003 15 5020 -1 9 -9 11 -300 11 -1206 0
-657 -4 -1200 -8 -1206 -7 -10 -520 -13 -2511 -13 -2151 0 -2505 2 -2515 14
-8 10 -12 73 -12 203 0 103 -4 194 -9 202 -13 21 -136 23 -153 3 -19 -23 -18
-569 1 -585 17 -14 5311 -18 5355 -4 l27 9 0 1368 c0 753 -3 1375 -6 1384 -6
15 -252 16 -2690 16 -2546 0 -2684 -1 -2692 -17z"/>
<path d="M4541 4381 c-10 -7 -15 -34 -16 -101 -1 -67 -5 -94 -16 -101 -8 -5
-42 -9 -75 -9 -47 0 -63 -4 -68 -16 -9 -23 -7 -127 3 -142 5 -9 30 -14 69 -14
33 -1 66 -4 73 -9 9 -5 14 -36 14 -96 1 -49 5 -94 9 -101 10 -16 138 -16 154
0 7 7 12 45 12 99 0 58 4 90 13 96 6 5 41 10 77 12 35 1 67 4 69 7 9 9 8 129
-1 147 -7 13 -22 17 -71 17 -36 0 -68 5 -75 12 -7 7 -12 44 -12 98 0 54 -5 91
-12 98 -14 14 -126 16 -147 3z"/>
<path d="M5143 4378 c-11 -18 -12 -1688 -1 -1710 7 -15 22 -18 76 -18 40 0 73
5 80 12 17 17 17 1699 0 1716 -16 16 -144 16 -155 0z"/>
<path d="M5751 4368 c-4 -13 -7 -225 -7 -471 1 -386 3 -449 16 -457 8 -5 43
-10 77 -10 49 0 64 4 72 18 12 23 12 901 0 925 -8 14 -23 17 -80 17 -63 0 -70
-2 -78 -22z"/>
<path d="M546 4035 c-21 -10 -21 -16 -22 -513 -1 -466 0 -504 16 -515 26 -18
658 -16 670 3 12 19 11 132 -1 147 -9 10 -64 13 -248 13 -130 0 -243 4 -251
10 -19 12 -21 263 -2 282 9 9 69 13 218 13 170 0 207 3 214 15 14 22 12 134
-2 148 -9 9 -72 12 -220 12 -207 0 -209 0 -217 23 -9 26 -6 175 4 185 4 4 114
7 245 8 178 1 243 4 255 14 21 17 21 132 0 150 -19 15 -628 20 -659 5z"/>
<path d="M1515 4042 c-16 -2 -34 -8 -40 -13 -6 -6 -10 -196 -10 -507 0 -431 2
-499 15 -512 13 -13 62 -15 338 -14 192 0 326 4 332 10 15 15 15 131 0 149
-10 13 -50 15 -249 15 -171 0 -240 3 -249 12 -8 8 -12 55 -12 145 0 116 2 133
18 141 9 5 109 8 221 8 185 -1 204 0 216 17 13 19 15 124 2 145 -6 9 -63 12
-227 12 -189 0 -219 2 -224 16 -12 31 -7 182 7 191 6 4 119 8 250 9 141 0 242
5 247 10 16 16 15 145 -1 155 -8 5 -39 9 -69 9 -259 4 -540 4 -565 2z"/>
<path d="M2455 4040 l-40 -5 -3 -269 c-1 -177 1 -273 8 -280 7 -7 98 -11 248
-11 130 0 243 -4 250 -8 18 -12 17 -270 -1 -286 -9 -7 -98 -12 -258 -13 l-244
-3 -3 -78 c-2 -67 0 -78 15 -84 24 -9 661 -8 670 1 11 10 11 607 1 629 -8 15
-30 17 -252 17 -183 0 -246 3 -254 13 -12 14 -11 182 1 194 5 4 117 8 249 9
213 0 242 2 253 17 14 19 12 134 -3 149 -9 9 -567 17 -637 8z"/>
<path d="M4548 3602 c-10 -2 -19 -11 -19 -20 -6 -86 -3 -901 3 -914 7 -15 22
-18 76 -18 40 0 73 5 80 12 18 18 17 924 0 935 -14 8 -111 12 -140 5z"/>
<path d="M5757 3246 c-11 -11 -13 -71 -13 -292 1 -154 5 -285 9 -291 5 -9 33
-13 76 -13 43 0 72 5 79 13 6 7 10 121 10 295 0 253 -1 283 -16 291 -27 14
-130 12 -145 -3z"/>
</g>
</svg>
