<?xml version="1.0" standalone="no"?>
<!DOCTYPE svg PUBLIC "-//W3C//DTD SVG 20010904//EN"
 "http://www.w3.org/TR/2001/REC-SVG-20010904/DTD/svg10.dtd">
<svg version="1.0" xmlns="http://www.w3.org/2000/svg"
 width="1940.000000pt" height="1940.000000pt" viewBox="0 0 1940.000000 1940.000000"
 preserveAspectRatio="xMidYMid meet">
<metadata>
Created by potrace 1.14, written by Peter Selinger 2001-2017
</metadata>
<g transform="translate(0.000000,1940.000000) scale(0.100000,-0.100000)"
fill="#000000" stroke="none">
<path d="M2614 13790 c-12 -4 -31 -21 -43 -36 l-21 -27 0 -828 0 -829 29 -32
29 -33 189 -3 c173 -2 191 -1 220 17 21 13 35 33 42 58 7 25 11 233 11 588 0
600 -2 579 57 604 21 8 1862 11 7356 9 l7329 -3 24 -28 24 -28 0 -3519 0
-3519 -24 -28 -24 -28 -7329 -3 c-5494 -2 -7335 1 -7356 9 -59 25 -57 4 -57
604 0 355 -4 563 -11 588 -7 25 -21 45 -42 58 -29 18 -47 19 -220 17 l-189 -3
-29 -33 -29 -32 0 -830 0 -830 29 -32 29 -33 7857 0 7857 0 29 33 29 32 0
4030 0 4030 -29 32 -29 33 -7844 2 c-4319 1 -7852 -2 -7864 -7z"/>
<path d="M12810 12247 c-48 -37 -50 -48 -50 -302 0 -265 -3 -279 -60 -307 -29
-15 -63 -18 -196 -18 -148 0 -164 -2 -187 -21 -41 -32 -49 -77 -45 -262 l3
-167 33 -32 32 -33 168 -3 c92 -1 177 -5 190 -8 12 -2 31 -19 42 -37 18 -29
20 -51 20 -270 0 -259 4 -280 56 -307 37 -20 369 -22 405 -2 52 27 54 39 59
315 l5 259 28 24 c27 23 34 24 180 24 170 0 217 9 247 47 19 24 20 39 20 219
l0 192 -30 30 -30 30 -177 4 c-183 3 -211 9 -230 48 -4 8 -10 131 -13 273 l-5
259 -33 29 -32 29 -193 0 c-135 -1 -197 -4 -207 -13z"/>
<path d="M14581 12229 l-31 -31 0 -2498 0 -2498 31 -31 31 -31 195 0 195 0 29
29 29 29 0 2502 0 2502 -29 29 -29 29 -195 0 -195 0 -31 -31z"/>
<path d="M16381 12244 c-53 -38 -51 18 -51 -1386 0 -884 4 -1315 11 -1341 7
-25 21 -45 42 -58 29 -18 47 -19 220 -17 l189 3 29 33 29 32 0 1336 c0 964 -3
1341 -11 1357 -28 54 -40 57 -244 57 -160 0 -194 -3 -214 -16z"/>
<path d="M1084 11230 c-12 -4 -31 -21 -43 -36 l-21 -27 0 -1468 0 -1469 29
-32 29 -33 954 -3 c930 -2 954 -2 985 17 21 14 35 32 42 58 14 49 14 317 0
366 -21 76 22 71 -767 77 l-704 5 -24 28 -24 28 0 380 c0 419 0 416 62 438 21
7 221 11 605 11 623 0 616 -1 641 55 8 17 12 88 12 208 0 153 -3 186 -16 206
-36 51 -40 51 -663 51 l-579 0 -31 26 -31 26 0 258 0 259 24 28 24 28 704 5
c789 6 746 1 767 77 14 49 14 317 0 366 -7 26 -21 44 -42 57 -31 19 -58 20
-972 19 -517 0 -950 -4 -961 -9z"/>
<path d="M3833 11221 c-21 -14 -35 -32 -42 -58 -15 -53 -15 -2873 0 -2926 7
-26 21 -44 42 -58 31 -19 55 -19 985 -17 l954 3 29 33 29 32 0 190 0 190 -29
32 -29 33 -706 5 -706 5 -27 28 -28 27 0 385 0 385 28 27 27 28 626 5 626 5
29 33 29 32 0 181 c0 144 -3 186 -16 210 -30 59 -25 59 -687 59 l-604 0 -26
24 c-14 13 -29 39 -32 57 -3 19 -5 136 -3 261 l3 228 28 27 27 28 706 5 706 5
29 33 29 32 0 190 0 190 -29 32 -29 33 -954 3 c-930 2 -954 2 -985 -17z"/>
<path d="M6615 11231 c-11 -5 -29 -19 -40 -31 -20 -22 -20 -38 -23 -791 l-2
-768 29 -33 29 -33 707 -5 707 -5 29 -33 29 -32 0 -371 c0 -391 -2 -413 -47
-435 -10 -5 -334 -11 -720 -14 l-703 -5 -27 -28 -28 -27 0 -200 0 -200 28 -27
27 -28 950 -3 c1055 -3 997 -6 1026 63 12 29 14 174 14 898 0 590 -3 874 -11
895 -6 17 -23 39 -37 49 -25 17 -72 18 -730 23 l-704 5 -24 28 -24 28 0 252
c0 272 1 278 57 306 15 8 221 11 703 11 756 0 727 -2 756 65 20 48 20 342 0
390 -29 69 27 65 -1013 64 -516 0 -947 -4 -958 -8z"/>
<path d="M12825 9951 c-11 -5 -29 -19 -40 -31 -20 -22 -20 -38 -23 -1354 -1
-732 0 -1340 3 -1352 2 -11 17 -33 31 -47 l27 -27 191 0 c213 0 226 3 252 66
21 50 21 2638 0 2689 -25 58 -52 65 -248 64 -95 0 -182 -4 -193 -8z"/>
<path d="M16413 8933 c-31 -6 -70 -48 -77 -84 -3 -18 -6 -387 -6 -821 0 -848
-1 -835 51 -872 20 -13 54 -16 214 -16 204 0 216 3 244 57 16 31 16 1642 -1
1677 -24 55 -48 61 -233 63 -93 0 -180 -1 -192 -4z"/>
</g>
</svg>
